<?xml version="1.0" encoding="UTF-8" ?>
<!DOCTYPE svg PUBLIC "-//W3C//DTD SVG 1.1//EN" "http://www.w3.org/Graphics/SVG/1.1/DTD/svg11.dtd">
<svg width="96pt" height="96pt" viewBox="0 0 96 96" version="1.1" xmlns="http://www.w3.org/2000/svg">
<g id="#85c5ecff">
<path fill="#85c5ec" opacity="1.00" d=" M 41.11 8.86 C 45.63 13.05 49.74 17.65 54.11 21.99 C 55.57 23.53 57.37 24.93 57.83 27.13 C 62.32 22.99 66.46 18.48 70.99 14.37 C 70.97 22.52 71.34 30.66 71.49 38.80 C 70.58 39.81 69.66 40.81 68.74 41.82 C 75.50 41.78 82.27 41.74 89.03 41.83 C 83.52 47.28 77.93 52.67 72.22 57.92 C 70.53 57.98 68.83 58.03 67.14 58.08 C 71.49 62.41 76.00 66.57 80.16 71.07 C 73.10 71.41 66.02 71.49 58.95 71.78 C 57.96 70.85 56.98 69.92 56.00 68.99 C 55.88 75.70 56.03 82.41 55.91 89.11 C 50.55 84.14 45.64 78.71 40.49 73.52 C 38.79 72.11 39.72 69.72 39.47 67.83 C 34.49 71.43 30.74 76.47 26.02 80.41 C 26.01 73.34 25.67 66.29 25.51 59.23 C 26.41 58.20 27.32 57.19 28.24 56.19 C 21.47 56.22 14.71 56.25 7.94 56.18 C 13.50 50.72 19.10 45.31 24.82 40.02 C 26.52 40.04 28.22 40.05 29.92 40.05 C 25.60 35.63 21.03 31.46 16.82 26.94 C 23.89 26.56 30.97 26.54 38.04 26.21 C 39.02 27.15 40.00 28.09 40.98 29.02 C 41.15 22.30 40.95 15.58 41.11 8.86 M 45.53 41.30 C 42.13 43.17 38.39 44.33 34.99 46.22 C 36.94 48.18 39.13 49.92 40.83 52.11 C 42.61 55.41 43.89 58.95 45.47 62.34 C 48.32 60.02 50.42 56.65 54.02 55.41 C 56.73 54.30 59.41 53.12 62.02 51.80 C 60.06 49.83 57.84 48.09 56.16 45.87 C 54.38 42.58 53.10 39.04 51.52 35.66 C 49.47 37.48 47.63 39.53 45.53 41.30 Z" />
</g>
</svg>
